<?xml version="1.0" encoding="UTF-8"?>
<svg width="82px" height="48px" viewBox="0 0 82 48" version="1.1" xmlns="http://www.w3.org/2000/svg" xmlns:xlink="http://www.w3.org/1999/xlink">
    <!-- Generator: Sketch 56.3 (81716) - https://sketch.com -->
    <title>IMAGE / logo ss-primary-orange</title>
    <desc>Created with Sketch.</desc>
    <defs>
        <polygon id="path-1" points="0.0558823529 0.876934202 41.021961 0.876934202 41.021961 27.4351129 0.0558823529 27.4351129"></polygon>
        <polygon id="path-3" points="0.831642128 0.606536204 65.1958678 0.606536204 65.1958678 47.5 0.831642128 47.5"></polygon>
    </defs>
    <g id="Page-1" stroke="none" stroke-width="1" fill="none" fill-rule="evenodd">
        <g id="01---1200---global-nav---option-1" transform="translate(-17.000000, -14.000000)">
            <g id="IMAGE-/-logo-ss-primary-orange" transform="translate(17.000000, 14.000000)">
                <path d="M54.3828431,17.9484804 C54.8559804,17.9857353 55.2704412,17.8460294 55.6178431,17.534951 C56.8621569,16.420098 56.9590196,13.4089706 57.0121078,11.7921078 C57.0195588,11.5741667 57.0251471,11.3869608 57.0335294,11.2407353 C57.1126961,9.83343137 57.5439216,7.83470588 57.9183333,7.59720588 C57.9453431,7.5795098 57.9593137,7.58416667 57.9723529,7.59068627 C58.2368627,7.7322549 58.4659804,9.15166667 58.4901961,10.0392647 C58.4948529,10.2152941 58.4892647,10.4863235 58.4818137,10.83 C58.432451,13.1575 58.3188235,18.6069608 60.9723039,19.2375 C61.0831373,19.2635784 61.194902,19.2766176 61.3094608,19.2766176 C61.9707353,19.2766176 62.6795098,18.8323529 63.4208824,17.9503431 C66.3658824,14.4446569 69.0715196,4.71367647 67.8737745,1.93166667 C67.6586275,1.43151961 67.3289216,1.16421569 66.8930392,1.13906863 C65.1616176,1.03196078 64.3839216,4.54230392 63.7040196,7.63539216 C63.2746569,9.58941176 62.8294608,11.6114216 62.2603922,11.6542647 C62.1504902,11.6635784 62.0601471,11.6319118 61.9865686,11.5592647 C61.5972549,11.1792647 61.6680392,9.76730392 61.7360294,8.40098039 C61.7453431,8.22588235 61.7546569,8.04985294 61.7621078,7.8747549 C61.7751471,7.57764706 61.8012255,7.25073529 61.8273039,6.90519608 C61.9539706,5.23803922 62.1113725,3.16480392 61.117598,2.37127451 C60.6444608,1.99406863 59.9496569,1.94284314 59.0518137,2.21946078 C56.5017157,3.00553922 55.0823039,5.52397059 54.1304412,7.62980392 C53.2670588,9.54098039 51.8672059,15.0733333 53.0770588,17.1176961 C53.3769608,17.6243627 53.8156373,17.9047059 54.3828431,17.9484804" id="Fill-1" fill="#FF4B21" fill-rule="evenodd"></path>
                <g id="Group-5" stroke-width="1" fill-rule="evenodd" transform="translate(0.000000, 0.931373)">
                    <mask id="mask-2" fill="white">
                        <use xlink:href="#path-1"></use>
                    </mask>
                    <g id="Clip-3"></g>
                    <path d="M32.0271078,16.4946078 C32.8541667,17.0273529 34.1338725,17.2154902 35.3046078,17.2154902 C35.6603922,17.2154902 36.0059314,17.1977941 36.3253922,17.1679902 C38.2803431,16.9826471 39.8338725,16.0214706 40.5892157,14.5322059 C41.1070588,13.5114216 41.1648039,12.3881863 40.7373039,11.6719608 C39.6997549,9.93215686 37.6553922,10.6111275 36.162402,11.1056863 C35.8177941,11.2202451 35.4908824,11.3282843 35.2096078,11.3972059 C34.0416667,11.6840686 33.2155392,11.4819608 32.8187745,10.8123039 C32.1994118,9.76637255 32.7805882,7.84681373 33.7138235,6.82882353 C34.097549,6.41063725 34.8771078,5.77264706 35.7926471,6.21318627 C36.1214216,6.37058824 36.3477451,6.65745098 36.5656863,6.93593137 C36.9978431,7.4845098 37.444902,8.05357843 38.6631373,7.70058824 C39.2070588,7.54318627 39.6354902,7.07470588 39.9037255,6.34730392 C40.3694118,5.0825 40.2297059,3.32686275 39.5842647,2.34892157 C39.0943627,1.6047549 38.3660294,1.12044118 37.4784314,0.948137255 C36.2527451,0.711568627 34.7541667,1.07387255 33.567598,1.89534314 C31.6303431,3.23558824 30.4530882,5.31068627 29.9697059,8.2379902 C29.4704902,11.2705392 29.1761765,14.6588725 32.0271078,16.4946078" id="Fill-2" fill="#FF4B21" mask="url(#mask-2)"></path>
                    <path d="M12.317402,14.4698039 C9.57171569,14.3869118 6.39852941,15.5595098 5.985,14.4483824 C5.57147059,13.3372549 9.00357843,12.2969118 11.107549,12.0463725 C14.2853922,11.6691667 16.5244118,10.8681863 16.877402,9.0725 C17.3617157,6.60622549 15.3378431,4.66151961 9.29416667,6.08745098 C4.73882353,7.16132353 0.0679901961,11.1215196 0.511323529,14.8833333 C0.943480392,18.5594608 5.41686275,17.7882843 7.95485294,17.2341176 C10.5505882,16.6669118 13.3605392,16.9668137 11.6514706,18.444902 C10.6716667,19.2915196 7.85426471,19.2868627 6.69004902,19.3688235 C4.13436275,19.5513725 -0.183480392,20.2722549 0.00651960784,23.7164706 C0.219803922,27.5993627 5.03779412,27.564902 7.80955882,27.3646569 C10.607402,27.1634804 13.6986275,25.4618627 15.1944118,23.0747549 C17.6159804,19.2104902 16.9910294,14.6113725 12.317402,14.4698039" id="Fill-4" fill="#FF4B21" mask="url(#mask-2)"></path>
                </g>
                <path d="M48.789951,25.8195098 C49.1345588,24.1570098 50.5101961,22.500098 51.5021078,22.5597059 C52.1037745,22.5997549 52.4707353,23.3010784 52.5377941,24.5323529 C52.589951,25.4776961 52.3673529,26.1082353 51.8755882,26.4062745 C51.2729902,26.7732353 50.2587255,26.6121078 49.0591176,25.9713235 C48.9743627,25.9219608 48.884951,25.8716667 48.789951,25.8195098 Z M53.4831373,31.7476961 C53.4747549,31.7476961 53.4673039,31.7476961 53.4598529,31.7476961 C52.5685294,31.7523529 51.8094608,32.2534314 51.0755392,32.7368137 C50.2102941,33.3086765 49.392549,33.8479412 48.4676961,33.4837745 C47.3435294,33.0413725 47.6182843,29.979951 47.9377451,28.6387745 C49.5648529,29.4406863 52.6188235,30.2547059 54.6957843,29.3233333 C55.6709314,28.8865196 56.3061275,28.1181373 56.5836765,27.042402 C57.2933824,24.3004412 56.7615686,21.6087745 55.2294608,20.1828431 C54.0615196,19.0959314 52.4223039,18.8332843 50.6145098,19.442402 C48.6101961,20.1185784 47.105098,22.0837745 46.0731373,24.3982353 C45.3913725,24.0601471 44.6388235,23.6997059 43.8341176,23.3420588 C43.9691667,22.8540196 44.1023529,22.4060294 44.2234314,21.9971569 C44.8306863,19.9453431 45.1976471,18.7066176 44.3212255,17.9764216 C44.0492647,17.750098 43.7195588,17.6970098 43.3647059,17.8246078 C42.4994608,18.1328922 41.3855392,19.5839706 40.3591667,21.9645588 C38.0987255,21.1887255 35.6976471,20.6187255 33.4865686,20.6187255 C33.4828431,20.6187255 33.480049,20.6187255 33.4772549,20.6187255 C33.2835294,20.5991667 33.0814216,20.582402 32.8653431,20.5675 C29.4155392,20.3476961 23.3318137,21.1663725 21.6814216,24.2985784 C20.9735784,25.642549 20.837598,27.1532353 21.3088725,28.4441176 C21.7354412,29.6129902 22.6016176,30.4912745 23.8161275,30.9858333 C24.985,31.4608333 26.2879902,31.5046078 27.5490686,31.547451 C28.065049,31.5651471 28.5977941,31.5819118 29.1072549,31.6303431 C29.1743137,31.6368627 29.252549,31.6433824 29.3382353,31.6489706 C30.0209314,31.7029902 31.2903922,31.8017157 31.7905392,32.4285294 C31.9730882,32.6567157 32.0373529,32.9314706 31.9879902,33.2686275 C31.92,33.7287255 31.7141667,34.0612255 31.3602451,34.2856863 C30.0879902,35.0913235 27.297598,34.2428431 25.6295098,33.7361765 C25.3258824,33.6430392 25.0632353,33.5638725 24.8555392,33.5070588 C23.4314706,33.1261275 19.8997059,32.3782353 17.8497549,33.6681863 C17.0860294,34.1487745 16.6091667,34.8677941 16.4340686,35.8056863 C16.252451,36.772451 16.4387255,37.6544608 16.9863725,38.4256373 C18.0472059,39.9214216 20.3244118,40.7447549 22.102402,41.0167157 C23.0551961,41.1620098 24.035,41.2337255 25.0054902,41.2337255 C26.7397059,41.2337255 28.4469118,41.0046078 29.9343137,40.557549 C32.9016667,39.6662255 34.927402,37.9366667 35.7926471,35.5579412 C36.4092157,33.8591176 36.3244608,32.1686765 35.5523529,30.7976961 C34.7979412,29.4583824 33.4260294,28.5307353 31.6908824,28.1861275 C31.1506863,28.0780882 30.4521569,28.0715686 29.7778431,28.0641176 C28.5037255,28.0510784 27.1858333,28.0380392 26.8607843,27.3776961 C26.7518137,27.1569608 26.7536765,26.9595098 26.8645098,26.775098 C27.3087745,26.0355882 29.4285784,25.6434804 31.3332353,25.5838725 L31.3397549,25.5820098 C34.167402,25.5186765 36.6932843,25.6378922 38.9965686,25.9526961 C38.7581373,26.8384314 38.5383333,27.7865686 38.3436765,28.7943137 C37.1505882,34.9879412 37.4775,41.0390686 39.1046078,42.8710784 C39.4454902,43.2538725 39.8357353,43.447598 40.2660294,43.447598 C40.3014216,43.447598 40.3368137,43.4466667 40.3722059,43.4438725 C42.2358824,43.3088235 42.3159804,40.0769608 42.4268137,35.6045098 C42.479902,33.4735294 42.5385784,31.0603431 42.8030882,28.5959314 C42.8720098,27.9542157 42.9586275,27.3469608 43.0573529,26.7713725 C43.7316667,26.9567157 44.3882843,27.162549 45.0290686,27.392598 C44.8884314,27.9244118 44.7692157,28.4562255 44.6723529,28.9740686 C43.9496078,32.8401961 44.0855882,35.5039216 45.0784314,36.892598 C45.8384314,37.9571569 47.2103431,38.5215686 48.9166176,38.5215686 C49.5341176,38.5215686 50.1953922,38.4470588 50.887402,38.2961765 C53.9115686,37.6330392 55.947549,35.1276471 55.7491667,33.330098 C55.637402,32.3232843 54.8122059,31.7476961 53.4831373,31.7476961 L53.4831373,31.7476961 Z" id="Fill-6" fill="#FF4B21" fill-rule="evenodd"></path>
                <g id="Group-12" stroke-width="1" fill-rule="evenodd" transform="translate(16.764706, 0.000000)">
                    <mask id="mask-4" fill="white">
                        <use xlink:href="#path-3"></use>
                    </mask>
                    <g id="Clip-8"></g>
                    <path d="M5.00147059,9.35843137 C5.31906863,7.76857843 6.47955882,6.14892157 7.27401961,6.21039216 C7.73039216,6.24205882 8.01539216,6.86235294 8.075,7.95764706 C8.13553922,9.05852941 7.68941176,9.9377451 6.93965686,10.1994608 C6.27558824,10.4313725 5.55377451,10.1175 5.00147059,9.35843137 Z M5.19333333,20.3784314 C5.76147059,20.3784314 6.37058824,20.3113725 7.00671569,20.1716667 C9.78872549,19.5616176 11.6635784,17.2555392 11.4791667,15.6004902 C11.3767157,14.6709804 10.6157843,14.1391667 9.39009804,14.1391667 C9.38264706,14.1391667 9.37519608,14.1391667 9.36867647,14.1391667 C8.54627451,14.1428922 7.84867647,14.6039216 7.17343137,15.050049 C6.37990196,15.5734804 5.63107843,16.0671078 4.78539216,15.7355392 C3.79627451,15.3452941 3.90245098,13.2795098 4.21352941,11.9672059 C5.72235294,13.172402 7.80303922,13.6427451 9.43759804,13.1388725 C10.6735294,12.7588725 11.5182843,11.875 11.8815196,10.585049 C12.5381373,8.24916667 11.9588235,5.55098039 10.5058824,4.17068627 C9.79990196,3.49916667 8.5602451,2.83137255 6.67235294,3.46843137 C3.66122549,4.48269608 1.87485294,8.66083333 1.2079902,12.2317157 C0.793529412,14.4511765 0.470343137,17.2108333 1.66156863,18.8789216 C2.36102941,19.8587255 3.62397059,20.3784314 5.19333333,20.3784314 L5.19333333,20.3784314 Z" id="Fill-7" fill="#FF4B21" mask="url(#mask-4)"></path>
                    <path d="M29.4770098,4.89808824 C29.775049,4.49946078 30.367402,3.87916667 31.1590686,3.87916667 C31.2503431,3.87916667 31.3434804,3.88661765 31.4403431,3.90431373 C32.237598,4.05053922 32.5104902,5.15142157 32.4266667,6.11259804 C32.3046569,7.50406863 31.477598,9.0045098 29.9510784,9.0147549 C29.9464216,9.0147549 29.9436275,9.0147549 29.9389706,9.0147549 C29.3987745,9.0147549 29.0131863,8.79495098 28.7943137,8.36186275 C28.3705392,7.52176471 28.6760294,5.96823529 29.4770098,4.89808824 Z M29.4052941,16.4061275 C29.4155392,16.4061275 29.4257843,16.4061275 29.435098,16.4061275 C33.3310294,16.3819118 34.8314706,11.575098 35.3791176,8.71205882 C36.2415686,4.19676471 35.4703922,1.61406863 33.0190196,0.816813725 C30.9616176,0.149019608 28.4729902,1.11392157 27.1020098,3.11357843 C25.3091176,5.72794118 24.4336275,11.3133824 26.0346569,14.330098 C26.7564706,15.6889706 27.9216176,16.4061275 29.4052941,16.4061275 L29.4052941,16.4061275 Z" id="Fill-9" fill="#FF4B21" mask="url(#mask-4)"></path>
                    <path d="M46.8983333,30.7278431 C45.9222549,30.9346078 45.4453922,30.7939706 45.7061765,29.6940196 L45.844951,29.0830392 C46.3739706,27.0517157 46.9728431,25.0632353 47.4189706,23.782598 C50.1972549,23.7118137 51.5412255,24.1476961 51.5412255,25.6025 C51.5412255,27.8377941 49.3636765,30.2062745 46.8983333,30.7278431 Z M46.7409314,20.297402 C44.7282353,20.4315196 42.2554412,20.819902 41.8968627,22.2970588 C41.5708824,23.6382353 43.0843627,23.8179902 44.1414706,23.812402 C43.3237255,25.4208824 41.9872059,28.4040686 40.9692157,32.427598 C39.3095098,38.9928431 38.4731373,46.8815686 41.2998529,47.4571569 C44.1917647,48.0457843 43.5537745,42.5283333 44.5540686,35.3772549 C46.2193627,35.9565686 49.2761275,35.435 51.8122549,33.1419608 C54.9779902,30.2789216 56.3089216,27.1951471 55.3337745,24.3479412 C54.3576961,21.4998039 50.2261275,20.0654902 46.7409314,20.297402 L46.7409314,20.297402 Z" id="Fill-10" fill="#FF4B21" mask="url(#mask-4)"></path>
                    <path d="M61.5264706,9.00730392 C61.2181863,10.7526961 58.7677451,13.197549 56.3005392,13.7181863 C55.9596569,13.7908333 55.322598,13.8001471 55.4706863,12.7951961 C55.9643137,9.43759804 56.967402,6.6975 56.967402,6.6975 C59.9738725,6.77387255 61.7313725,7.83843137 61.5264706,9.00730392 Z M64.9185294,7.4575 C63.9946078,4.98284314 60.149902,2.96921569 56.6637745,3.20112745 C54.6510784,3.33617647 53.4794118,6.05392157 52.3934314,9.43666667 C51.2087255,13.1267647 50.050098,18.1459314 52.0208824,18.9264216 C53.7923529,19.6268137 57.8438235,18.9972059 61.2479902,15.9180882 C64.4137255,13.055049 65.8433824,9.93122549 64.9185294,7.4575 L64.9185294,7.4575 Z" id="Fill-11" fill="#FF4B21" mask="url(#mask-4)"></path>
                </g>
                <text id="®" font-family="Molde-Regular, Molde" font-size="9.31372549" font-weight="normal" fill="#FF4B21">
                    <tspan x="72.9431422" y="24.9840068">®</tspan>
                </text>
            </g>
        </g>
    </g>
</svg>